# xmcd
#
# Track frame offsets: 
#        150
#        7359
#        18891
#        50205
#        77717
#        100836
#        115885
#        149600
#        172428
#        187276
#        214240
#        237283
#        263062
#        290313
#        294041
#        305833
#        322998
#
# Disc length: 4645 seconds
#
# Revision: 0
# Processed by: cddbd v1.5.2PL0 Copyright (c) Steve Scherf et al.
# Submitted via: ExactAudioCopy v1.0b3
#
DISCID=09122311
DTITLE=Skylark - TWILIGHTS OF SAND
DYEAR=2012
DGENRE=Metal
TTITLE0=The Tears Of Jupiter
TTITLE1=とべ!グレンダイザー
TTITLE2=The Princess And Belzebù
TTITLE3=She
TTITLE4=Love Song
TTITLE5=Tears
TTITLE6=Lions Are The World
TTITLE7=The Wings Of The Typhoon
TTITLE8=Sands Of Time
TTITLE9=Mystery Of The Night
TTITLE10=Road To Heaven
TTITLE11=Believe In Love
TTITLE12=Follow Your Dreams
TTITLE13=Eyes
TTITLE14=とべ!グレンダイザー (Karaoke ver.)
TTITLE15=Faded Fantasy
TTITLE16=Follow Your Dreams (Female voice ver.)
EXTD=
EXTT0=
EXTT1=
EXTT2=
EXTT3=
EXTT4=
EXTT5=
EXTT6=
EXTT7=
EXTT8=
EXTT9=
EXTT10=
EXTT11=
EXTT12=
EXTT13=
EXTT14=
EXTT15=
EXTT16=
PLAYORDER=
